<mxfile etag="w9_v_5X_TuZ-WiEY7RVU" agent="Mozilla/5.0 (Windows NT 10.0; Win64; x64) AppleWebKit/537.36 (KHTML, like Gecko) Chrome/80.0.3987.122 Safari/537.36" modified="2020-03-05T12:24:41.482Z" host="www.draw.io" version="12.7.9" type="github">
  <diagram id="c4acf3e9-155e-7222-9cf6-157b1a14988f" name="Page-1">
    <mxGraphModel dx="1422" dy="1800" grid="1" gridSize="10" guides="1" tooltips="1" connect="1" arrows="1" fold="1" page="1" pageScale="1" pageWidth="850" pageHeight="1100" background="#ffffff" math="0" shadow="0">
      <root>
        <mxCell id="0" />
        <mxCell id="1" parent="0" />
        <mxCell id="NpboKmtqAB361ApXjbLv-18" value="" style="rounded=0;whiteSpace=wrap;html=1;" parent="1" vertex="1">
          <mxGeometry x="195" y="-1010" width="420" height="810" as="geometry" />
        </mxCell>
        <mxCell id="9aQTBWPlIFSZcQRSFNad-4" value="view grade" style="ellipse;whiteSpace=wrap;html=1;" parent="1" vertex="1">
          <mxGeometry x="230" y="-580" width="120" height="70" as="geometry" />
        </mxCell>
        <mxCell id="9aQTBWPlIFSZcQRSFNad-13" value="add course" style="ellipse;whiteSpace=wrap;html=1;" parent="1" vertex="1">
          <mxGeometry x="240" y="-850" width="120" height="80" as="geometry" />
        </mxCell>
        <mxCell id="9aQTBWPlIFSZcQRSFNad-15" value="send email" style="ellipse;whiteSpace=wrap;html=1;" parent="1" vertex="1">
          <mxGeometry x="240" y="-760" width="120" height="80" as="geometry" />
        </mxCell>
        <mxCell id="9aQTBWPlIFSZcQRSFNad-17" value="log in" style="ellipse;whiteSpace=wrap;html=1;" parent="1" vertex="1">
          <mxGeometry x="240" y="-940" width="120" height="80" as="geometry" />
        </mxCell>
        <mxCell id="9aQTBWPlIFSZcQRSFNad-20" value="" style="endArrow=none;html=1;" parent="1" source="NpboKmtqAB361ApXjbLv-8" target="9aQTBWPlIFSZcQRSFNad-17" edge="1">
          <mxGeometry width="50" height="50" relative="1" as="geometry">
            <mxPoint x="250" y="-870" as="sourcePoint" />
            <mxPoint x="320" y="-910" as="targetPoint" />
            <Array as="points">
              <mxPoint x="150" y="-740" />
              <mxPoint x="243" y="-880" />
            </Array>
          </mxGeometry>
        </mxCell>
        <mxCell id="9aQTBWPlIFSZcQRSFNad-22" value="maintain assignment" style="ellipse;whiteSpace=wrap;html=1;" parent="1" vertex="1">
          <mxGeometry x="230" y="-300" width="120" height="80" as="geometry" />
        </mxCell>
        <mxCell id="tv2_x2lU9iWNKcgdzB8f-10" value="maintain student" style="ellipse;whiteSpace=wrap;html=1;" parent="1" vertex="1">
          <mxGeometry x="230" y="-480" width="120" height="80" as="geometry" />
        </mxCell>
        <mxCell id="tv2_x2lU9iWNKcgdzB8f-11" value="Professor" style="shape=umlActor;verticalLabelPosition=bottom;labelBackgroundColor=#ffffff;verticalAlign=top;html=1;outlineConnect=0;" parent="1" vertex="1">
          <mxGeometry x="700" y="-630" width="30" height="60" as="geometry" />
        </mxCell>
        <mxCell id="tv2_x2lU9iWNKcgdzB8f-13" value="verify password" style="ellipse;whiteSpace=wrap;html=1;" parent="1" vertex="1">
          <mxGeometry x="460" y="-920" width="120" height="80" as="geometry" />
        </mxCell>
        <mxCell id="tv2_x2lU9iWNKcgdzB8f-15" value="maintain grade" style="ellipse;whiteSpace=wrap;html=1;" parent="1" vertex="1">
          <mxGeometry x="230" y="-390" width="120" height="80" as="geometry" />
        </mxCell>
        <mxCell id="NpboKmtqAB361ApXjbLv-8" value="Student" style="shape=umlActor;verticalLabelPosition=bottom;labelBackgroundColor=#ffffff;verticalAlign=top;html=1;outlineConnect=0;" parent="1" vertex="1">
          <mxGeometry x="90" y="-650" width="30" height="60" as="geometry" />
        </mxCell>
        <mxCell id="NpboKmtqAB361ApXjbLv-10" value="" style="endArrow=none;html=1;entryX=0.007;entryY=0.588;entryDx=0;entryDy=0;entryPerimeter=0;exitX=0.75;exitY=0.1;exitDx=0;exitDy=0;exitPerimeter=0;" parent="1" source="NpboKmtqAB361ApXjbLv-8" target="9aQTBWPlIFSZcQRSFNad-15" edge="1">
          <mxGeometry width="50" height="50" relative="1" as="geometry">
            <mxPoint x="220" y="-765" as="sourcePoint" />
            <mxPoint x="270" y="-815" as="targetPoint" />
          </mxGeometry>
        </mxCell>
        <mxCell id="NpboKmtqAB361ApXjbLv-12" value="" style="endArrow=none;html=1;exitX=1;exitY=0.5;exitDx=0;exitDy=0;entryX=0.75;entryY=0.1;entryDx=0;entryDy=0;entryPerimeter=0;" parent="1" source="9aQTBWPlIFSZcQRSFNad-17" target="tv2_x2lU9iWNKcgdzB8f-11" edge="1">
          <mxGeometry width="50" height="50" relative="1" as="geometry">
            <mxPoint x="480" y="-860" as="sourcePoint" />
            <mxPoint x="510" y="-820" as="targetPoint" />
            <Array as="points" />
          </mxGeometry>
        </mxCell>
        <mxCell id="NpboKmtqAB361ApXjbLv-15" value="" style="endArrow=none;html=1;" parent="1" source="9aQTBWPlIFSZcQRSFNad-15" target="tv2_x2lU9iWNKcgdzB8f-11" edge="1">
          <mxGeometry width="50" height="50" relative="1" as="geometry">
            <mxPoint x="480" y="-680" as="sourcePoint" />
            <mxPoint x="530" y="-730" as="targetPoint" />
            <Array as="points">
              <mxPoint x="460" y="-740" />
            </Array>
          </mxGeometry>
        </mxCell>
        <mxCell id="NpboKmtqAB361ApXjbLv-20" value="&amp;lt;&amp;lt;include&amp;gt;&amp;gt;" style="edgeStyle=none;html=1;endArrow=open;verticalAlign=bottom;dashed=1;labelBackgroundColor=none;" parent="1" target="tv2_x2lU9iWNKcgdzB8f-13" edge="1">
          <mxGeometry width="160" relative="1" as="geometry">
            <mxPoint x="360" y="-900.42" as="sourcePoint" />
            <mxPoint x="460" y="-900" as="targetPoint" />
          </mxGeometry>
        </mxCell>
        <mxCell id="NpboKmtqAB361ApXjbLv-21" value="" style="endArrow=none;html=1;" parent="1" source="9aQTBWPlIFSZcQRSFNad-22" target="NpboKmtqAB361ApXjbLv-8" edge="1">
          <mxGeometry width="50" height="50" relative="1" as="geometry">
            <mxPoint x="240.26907955546108" y="-607.6210857999574" as="sourcePoint" />
            <mxPoint x="330" y="-640" as="targetPoint" />
            <Array as="points">
              <mxPoint x="135" y="-390" />
            </Array>
          </mxGeometry>
        </mxCell>
        <mxCell id="NpboKmtqAB361ApXjbLv-26" value="" style="endArrow=none;html=1;entryX=0.021;entryY=0.608;entryDx=0;entryDy=0;entryPerimeter=0;exitX=0.75;exitY=0.1;exitDx=0;exitDy=0;exitPerimeter=0;" parent="1" source="NpboKmtqAB361ApXjbLv-8" target="9aQTBWPlIFSZcQRSFNad-13" edge="1">
          <mxGeometry width="50" height="50" relative="1" as="geometry">
            <mxPoint x="140" y="-590" as="sourcePoint" />
            <mxPoint x="190" y="-640" as="targetPoint" />
            <Array as="points">
              <mxPoint x="170" y="-720" />
            </Array>
          </mxGeometry>
        </mxCell>
        <mxCell id="NpboKmtqAB361ApXjbLv-27" value="" style="endArrow=none;html=1;" parent="1" source="9aQTBWPlIFSZcQRSFNad-4" target="NpboKmtqAB361ApXjbLv-8" edge="1">
          <mxGeometry width="50" height="50" relative="1" as="geometry">
            <mxPoint x="280" y="-590" as="sourcePoint" />
            <mxPoint x="330" y="-640" as="targetPoint" />
          </mxGeometry>
        </mxCell>
        <mxCell id="NpboKmtqAB361ApXjbLv-32" value="" style="endArrow=none;html=1;exitX=1;exitY=0.5;exitDx=0;exitDy=0;" parent="1" source="tv2_x2lU9iWNKcgdzB8f-10" target="tv2_x2lU9iWNKcgdzB8f-11" edge="1">
          <mxGeometry width="50" height="50" relative="1" as="geometry">
            <mxPoint x="580" y="-490" as="sourcePoint" />
            <mxPoint x="630" y="-540" as="targetPoint" />
          </mxGeometry>
        </mxCell>
        <mxCell id="NpboKmtqAB361ApXjbLv-35" value="" style="endArrow=none;html=1;entryX=0.467;entryY=0.75;entryDx=0;entryDy=0;entryPerimeter=0;" parent="1" source="tv2_x2lU9iWNKcgdzB8f-15" target="tv2_x2lU9iWNKcgdzB8f-11" edge="1">
          <mxGeometry width="50" height="50" relative="1" as="geometry">
            <mxPoint x="580" y="-480" as="sourcePoint" />
            <mxPoint x="680" y="-540" as="targetPoint" />
            <Array as="points" />
          </mxGeometry>
        </mxCell>
        <mxCell id="NpboKmtqAB361ApXjbLv-36" value="" style="endArrow=none;html=1;entryX=0;entryY=1;entryDx=0;entryDy=0;entryPerimeter=0;" parent="1" source="9aQTBWPlIFSZcQRSFNad-22" target="tv2_x2lU9iWNKcgdzB8f-11" edge="1">
          <mxGeometry width="50" height="50" relative="1" as="geometry">
            <mxPoint x="590" y="-480" as="sourcePoint" />
            <mxPoint x="640" y="-530" as="targetPoint" />
          </mxGeometry>
        </mxCell>
        <mxCell id="-U170f8Slij29Pjp_573-3" value="" style="endArrow=none;html=1;entryX=0.5;entryY=0.5;entryDx=0;entryDy=0;entryPerimeter=0;" parent="1" source="9aQTBWPlIFSZcQRSFNad-4" target="tv2_x2lU9iWNKcgdzB8f-11" edge="1">
          <mxGeometry width="50" height="50" relative="1" as="geometry">
            <mxPoint x="390" y="-540" as="sourcePoint" />
            <mxPoint x="430" y="-580" as="targetPoint" />
          </mxGeometry>
        </mxCell>
        <mxCell id="-U170f8Slij29Pjp_573-6" value="Learning Management System" style="text;html=1;align=center;verticalAlign=middle;resizable=0;points=[];autosize=1;" parent="1" vertex="1">
          <mxGeometry x="326" y="-990" width="180" height="20" as="geometry" />
        </mxCell>
        <mxCell id="-U170f8Slij29Pjp_573-7" value="view GPA" style="ellipse;whiteSpace=wrap;html=1;" parent="1" vertex="1">
          <mxGeometry x="240" y="-670" width="120" height="80" as="geometry" />
        </mxCell>
        <mxCell id="-U170f8Slij29Pjp_573-8" value="" style="endArrow=none;html=1;exitX=1;exitY=0.3333333333333333;exitDx=0;exitDy=0;exitPerimeter=0;" parent="1" source="NpboKmtqAB361ApXjbLv-8" edge="1">
          <mxGeometry width="50" height="50" relative="1" as="geometry">
            <mxPoint x="190" y="-580" as="sourcePoint" />
            <mxPoint x="240" y="-630" as="targetPoint" />
          </mxGeometry>
        </mxCell>
        <mxCell id="-U170f8Slij29Pjp_573-11" value="view each exam&#39;s score in course" style="ellipse;whiteSpace=wrap;html=1;" parent="1" vertex="1">
          <mxGeometry x="380" y="-690" width="120" height="80" as="geometry" />
        </mxCell>
        <mxCell id="-U170f8Slij29Pjp_573-12" value="" style="endArrow=none;html=1;" parent="1" source="-U170f8Slij29Pjp_573-11" target="tv2_x2lU9iWNKcgdzB8f-11" edge="1">
          <mxGeometry width="50" height="50" relative="1" as="geometry">
            <mxPoint x="540" y="-580" as="sourcePoint" />
            <mxPoint x="590" y="-630" as="targetPoint" />
          </mxGeometry>
        </mxCell>
        <mxCell id="dv-91iZrbcrsFb6u8KhX-3" value="" style="endArrow=none;html=1;exitX=0.25;exitY=0.1;exitDx=0;exitDy=0;exitPerimeter=0;entryX=0.008;entryY=0.338;entryDx=0;entryDy=0;entryPerimeter=0;" edge="1" parent="1" source="NpboKmtqAB361ApXjbLv-8" target="-U170f8Slij29Pjp_573-11">
          <mxGeometry width="50" height="50" relative="1" as="geometry">
            <mxPoint x="380" y="-600" as="sourcePoint" />
            <mxPoint x="430" y="-650" as="targetPoint" />
            <Array as="points">
              <mxPoint x="310" y="-680" />
            </Array>
          </mxGeometry>
        </mxCell>
      </root>
    </mxGraphModel>
  </diagram>
</mxfile>
